<svg xmlns="http://www.w3.org/2000/svg" fill="none" viewBox="63.41 54.39 301.7 329.2">
<path d="M80.1195 152.47C93.0988 135.647 112.53 113.425 136.06 95.4903C159.676 77.4899 186.507 64.5006 214.5 64.5006C242.542 64.5006 269.235 77.5376 292.632 95.5794C315.948 113.559 335.092 135.823 347.821 152.627C356.278 163.792 356.464 179.263 348.563 192.075L248.347 354.589C232.759 379.865 196.036 379.942 180.342 354.732L79.2701 192.369C71.2115 179.424 71.4434 163.716 80.1195 152.47Z" stroke="black" stroke-width="20"/>
<path d="M348.407 152.359C335.428 135.535 315.997 113.313 292.467 95.3789C268.85 77.3784 242.019 64.3891 214.026 64.3891C185.984 64.3891 159.291 77.4261 135.894 95.468C112.578 113.448 93.4344 135.712 80.7056 152.516C72.2488 163.68 72.0625 179.152 79.9633 191.964L180.18 354.478C195.767 379.754 232.491 379.831 248.184 354.621L349.256 192.258C357.315 179.313 357.083 163.605 348.407 152.359Z" fill="#BC4A42" stroke="black" stroke-width="20"/>
<circle cx="214" cy="186" r="61" fill="#EAE5E3" stroke="black" stroke-width="20"/>
</svg>